<?xml version="1.0" encoding="utf-8"?>
<!-- Generator: Adobe Illustrator 16.0.0, SVG Export Plug-In . SVG Version: 6.00 Build 0)  -->
<!DOCTYPE svg PUBLIC "-//W3C//DTD SVG 1.1//EN" "http://www.w3.org/Graphics/SVG/1.1/DTD/svg11.dtd">
<svg version="1.1" id="Capa_1" xmlns="http://www.w3.org/2000/svg" xmlns:xlink="http://www.w3.org/1999/xlink" x="0px" y="0px"
	 width="512px" height="512px" viewBox="0 0 512 512" enable-background="new 0 0 512 512" xml:space="preserve">
<g>
	<path fill="#FFFFFF" d="M117.146,248.547c2.434,0,4.408-1.974,4.408-4.401c0-2.435-1.974-4.407-4.408-4.407
		c-52.533,0-95.268,43.212-95.268,96.332c0,2.429,1.968,4.401,4.401,4.401c2.434,0,4.403-1.973,4.403-4.401
		C30.681,287.808,69.47,248.547,117.146,248.547L117.146,248.547z"/>
	<path fill="#FFFFFF" d="M115.117,262.639c-40.055,0-72.642,32.94-72.642,73.432c0,40.484,32.587,73.428,72.642,73.428
		c40.05,0,72.637-32.943,72.637-73.428C187.754,295.579,155.167,262.639,115.117,262.639L115.117,262.639z M115.117,400.687
		c-35.198,0-63.832-28.988-63.832-64.616c0-35.635,28.634-64.624,63.832-64.624c35.192,0,63.826,28.989,63.826,64.624
		C178.944,371.698,150.31,400.687,115.117,400.687L115.117,400.687z"/>
	<path fill="#FFFFFF" d="M399.156,240.355c-2.434,0-4.399,1.973-4.399,4.407c0,2.429,1.969,4.401,4.399,4.401
		c47.678,0,86.466,39.261,86.466,87.519c0,2.434,1.973,4.407,4.402,4.407c2.434,0,4.407-1.974,4.407-4.407
		C494.432,283.567,451.69,240.355,399.156,240.355L399.156,240.355z"/>
	<g>
		<g>
			<g>
				<defs>
					<rect id="SVGID_1_" x="3.078" y="53.013" width="508.922" height="398.973"/>
				</defs>
				<clipPath id="SVGID_2_">
					<use xlink:href="#SVGID_1_"  overflow="visible"/>
				</clipPath>
				<path clip-path="url(#SVGID_2_)" fill="#FFFFFF" d="M396.703,262.639c-40.051,0-72.637,32.94-72.637,73.432
					c0,40.484,32.586,73.428,72.637,73.428c40.055,0,72.641-32.943,72.641-73.428C469.344,295.579,436.758,262.639,396.703,262.639
					L396.703,262.639z M396.703,400.687c-35.192,0-63.828-28.988-63.828-64.616c0-35.635,28.636-64.624,63.828-64.624
					c35.196,0,63.831,28.989,63.831,64.624C460.534,371.698,431.899,400.687,396.703,400.687L396.703,400.687z"/>
			</g>
		</g>
		<g>
			<g>
				<defs>
					<rect id="SVGID_3_" x="3.078" y="53.013" width="508.922" height="398.973"/>
				</defs>
				<clipPath id="SVGID_4_">
					<use xlink:href="#SVGID_3_"  overflow="visible"/>
				</clipPath>
				<path clip-path="url(#SVGID_4_)" fill="#FFFFFF" d="M490.605,269.272c-0.105-0.207-0.217-0.414-0.358-0.612l-96.98-132.796
					c-0.617-0.881-1.245-1.746-1.892-2.591l-14.282-19.562c-0.059-0.075-0.119-0.146-0.175-0.218
					c-7.58-11.501-18.484-19.94-30.97-24.368l-15.34-21c-9.305-12.22-16.062-14.527-27.688-15.08
					c-9.619-0.465-19.344,3.629-26.013,10.936c-6.024,6.603-8.834,15.145-7.705,23.453l0.625,6.437l2.373,21.874
					c0.016,0.152,0.062,0.293,0.092,0.441c-3.573,6.05-6.159,12.761-7.541,19.905c-2.185-1.234-4.7-1.943-7.366-1.943h-0.006
					c-2.671,0-5.186,0.713-7.373,1.943c-1.32-6.826-3.749-13.258-7.079-19.096l2.509-23.175l0.623-6.386
					c1.129-8.309-1.674-16.851-7.701-23.453c-6.668-7.302-16.404-11.39-26.019-10.936c-11.623,0.552-18.378,2.859-27.739,15.151
					l-15.114,20.695c-12.765,4.361-23.934,12.892-31.646,24.596c-0.061,0.072-0.116,0.148-0.172,0.223L24.513,268.66
					c-0.197,0.273-0.355,0.562-0.481,0.86c-13.191,18.813-20.954,41.78-20.954,66.55c0,63.6,51.172,115.343,114.068,115.343
					c55.792,0,102.355-40.714,112.16-94.299c6.387,8.668,16.597,14.295,28.089,14.295c11.497,0,21.718-5.632,28.098-14.31
					c9.804,53.59,56.368,94.313,112.166,94.313c62.896,0,114.067-51.743,114.067-115.343
					C511.727,311.194,503.899,288.137,490.605,269.272L490.605,269.272z M288.889,301.303l-13.516-126
					c0.016-33.805,27.112-61.302,60.416-61.302c18.818,0,36.686,9.118,48.558,24.582l1.766,2.418
					c0.228,0.324,0.455,0.647,0.673,0.977c0.091,0.131,0.203,0.237,0.298,0.359l69.292,94.875
					c-17.164-10.464-37.26-16.49-58.716-16.49C346.734,220.722,303.507,254.64,288.889,301.303L288.889,301.303z M364.126,111.421
					c-8.837-4.048-18.469-6.229-28.337-6.229c-18.62,0-36.046,7.281-49.071,20.503c-6.103,6.194-10.894,13.375-14.29,21.187
					c0.654-29.044,24.167-52.473,53.005-52.473C340.273,94.408,354.183,100.647,364.126,111.421L364.126,111.421z M278.591,92.972
					l-0.632-6.477c-0.006-0.062-0.01-0.123-0.021-0.183c-0.814-5.813,1.129-11.632,5.47-16.389
					c4.924-5.389,12.065-8.411,19.098-8.077c9.026,0.43,13.464,1.6,21.044,11.546l9.239,12.651c-2.423-0.294-4.88-0.445-7.359-0.445
					c-17.955,0-34.143,7.782-45.449,20.178L278.591,92.972z M257.379,142.959L257.379,142.959c3.184,0,5.84,2.404,6.238,5.607
					c0,0.005,0,0.014,0,0.025l1.377,12.488c0.004,0.091,0.015,0.182,0.02,0.269l15.946,148.618
					c-6.227-5.738-14.497-9.239-23.564-9.239c-9.047,0-17.305,3.482-23.519,9.198l16.025-148.628l1.234-12.7
					C251.52,145.379,254.191,142.959,257.379,142.959L257.379,142.959z M127.337,142.797c0.268-0.243,0.521-0.506,0.733-0.819
					c11.775-17.518,30.841-27.977,51-27.977c33.294,0,60.386,27.516,60.386,61.338c0,0.115,0.026,0.232,0.034,0.348l-13.555,125.677
					c-14.599-46.695-57.846-80.638-108.791-80.638c-21.495,0-41.618,6.047-58.802,16.541L127.337,142.797z M191.66,73.465
					c7.63-10.018,12.068-11.188,21.101-11.618c7.043-0.338,14.168,2.683,19.091,8.077c4.342,4.756,6.285,10.575,5.476,16.389
					c-0.011,0.061-0.015,0.122-0.026,0.183l-0.623,6.426l-1.452,13.353C223.902,93.589,207.518,85.6,189.322,85.6
					c-2.293,0-4.56,0.137-6.806,0.384L191.66,73.465z M189.322,94.408c28.777,0,52.25,23.327,53,52.285
					c-3.385-7.741-8.147-14.854-14.194-20.999c-13.014-13.222-30.44-20.503-49.056-20.503c-9.933,0-19.623,2.211-28.508,6.305
					C160.51,100.678,174.451,94.408,189.322,94.408L189.322,94.408z M117.146,442.604c-58.039,0-105.258-47.792-105.258-106.533
					c0-58.747,47.22-106.539,105.258-106.539c58.044,0,105.265,47.792,105.265,106.539
					C222.409,394.812,175.189,442.604,117.146,442.604L117.146,442.604z M257.395,362.601c-14.432,0-26.175-11.902-26.175-26.536
					c0-14.628,11.744-26.527,26.175-26.527c14.437,0,26.182,11.901,26.182,26.527C283.576,350.698,271.831,362.601,257.395,362.601
					L257.395,362.601z M397.659,442.604c-58.046,0-105.267-47.792-105.267-106.539c0-58.741,47.221-106.533,105.267-106.533
					c58.038,0,105.258,47.792,105.258,106.533C502.917,394.812,455.697,442.604,397.659,442.604L397.659,442.604z"/>
			</g>
		</g>
	</g>
</g>
</svg>
