<?xml version="1.0" encoding="utf-8"?>
<!-- Generator: Adobe Illustrator 16.0.0, SVG Export Plug-In . SVG Version: 6.00 Build 0)  -->
<!DOCTYPE svg PUBLIC "-//W3C//DTD SVG 1.1//EN" "http://www.w3.org/Graphics/SVG/1.1/DTD/svg11.dtd">
<svg version="1.1" id="Capa_1" xmlns="http://www.w3.org/2000/svg" xmlns:xlink="http://www.w3.org/1999/xlink" x="0px" y="0px"
	 width="512px" height="512px" viewBox="0 0 512 512" enable-background="new 0 0 512 512" xml:space="preserve">
<g>
	<path fill="#FFFFFF" d="M421.597,117.159c-30.758-30.754-68.777-51.605-110.195-60.965V36.123h5.719
		c8.2,0,14.877-6.674,14.877-14.874c0-8.201-6.674-14.875-14.877-14.875H204.624c-8.198,0-14.873,6.674-14.873,14.875
		c0,8.2,6.674,14.874,14.873,14.874h5.715v20.071c-41.417,9.36-79.434,30.211-110.188,60.965
		C57.222,160.091,33.58,217.166,33.58,277.882c0,60.712,23.642,117.791,66.574,160.72c42.927,42.934,100.008,66.573,160.719,66.573
		c60.713,0,117.789-23.64,160.724-66.573c42.928-42.929,66.569-100.009,66.569-160.72
		C488.166,217.166,464.524,160.091,421.597,117.159L421.597,117.159z M198.411,21.249c0-3.427,2.79-6.217,6.216-6.217h112.496
		c3.426,0,6.216,2.79,6.216,6.217c0,3.426-2.787,6.216-6.216,6.216H204.627C201.201,27.465,198.411,24.675,198.411,21.249
		L198.411,21.249z M219,36.123h83.75v18.305c-13.667-2.531-27.672-3.838-41.877-3.838c-14.206,0-28.202,1.308-41.874,3.838V36.123
		L219,36.123z M260.873,496.518c-120.557,0-218.635-98.079-218.635-218.636c0-120.556,98.078-218.633,218.635-218.633
		c120.556,0,218.64,98.08,218.64,218.633C479.513,398.438,381.429,496.518,260.873,496.518L260.873,496.518z"/>
	<path fill="#FFFFFF" d="M260.873,78.215c2.393,0,4.331-1.94,4.331-4.328c0-2.391-1.938-4.331-4.331-4.331
		c-114.869,0-208.321,93.453-208.321,208.325c0,2.387,1.935,4.326,4.325,4.326s4.327-1.939,4.327-4.326
		C61.21,167.784,150.78,78.215,260.873,78.215L260.873,78.215z"/>
	<path fill="#FFFFFF" d="M464.866,273.556c-2.387,0-4.323,1.934-4.323,4.326c0,110.096-89.569,199.665-199.668,199.665
		c-2.387,0-4.326,1.939-4.326,4.327c0,2.392,1.939,4.331,4.326,4.331c114.87,0,208.325-93.453,208.325-208.328
		C469.198,275.489,467.259,273.556,464.866,273.556L464.866,273.556z"/>
	<path fill="#FFFFFF" d="M444.084,277.882c0-101.022-82.187-183.211-183.211-183.211c-101.024,0-183.212,82.184-183.212,183.211
		c0,101.029,82.189,183.212,183.212,183.212C361.9,461.094,444.084,378.905,444.084,277.882L444.084,277.882z M86.359,281.056
		h41.475c2.387,0,4.325-1.94,4.325-4.328c0-2.392-1.938-4.328-4.325-4.328h-41.42c2.859-92.285,77.699-166.756,170.133-169.014
		v42.186c0,2.392,1.939,4.332,4.326,4.332c2.393,0,4.331-1.939,4.331-4.332v-42.19c92.221,2.256,166.918,76.389,170.105,168.386
		h-45.802c-2.392,0-4.326,1.938-4.326,4.324c0,2.394,1.938,4.327,4.326,4.327h45.887c-1.343,93.642-76.781,169.68-170.195,171.962
		v-45.135c0-2.387-1.938-4.327-4.329-4.327c-2.387,0-4.326,1.94-4.326,4.327v45.135C163.342,450.103,88.03,374.404,86.359,281.056
		L86.359,281.056z"/>
	<path fill="#FFFFFF" d="M289.717,308.257c0.646-0.377,1.179-0.914,1.556-1.556l74.641-128.026c0.994-1.696,0.717-3.849-0.676-5.241
		c-1.393-1.388-3.547-1.667-5.242-0.676l-127.961,74.749c-0.646,0.378-1.184,0.91-1.557,1.557l-74.646,128.021
		c-0.989,1.701-0.712,3.854,0.682,5.242c0.834,0.835,1.938,1.268,3.057,1.268c0.751,0,1.503-0.193,2.183-0.592L289.717,308.257z
		 M237.38,254.409l98.655-57.627l-46.44,47.562c-1.669,1.711-1.638,4.451,0.077,6.117c0.84,0.825,1.935,1.233,3.023,1.233
		c1.124,0,2.248-0.438,3.098-1.303l45.405-46.502l-56.828,97.466l-99.724,58.25l44.856-45.937c1.67-1.71,1.636-4.455-0.075-6.123
		c-1.71-1.671-4.451-1.635-6.122,0.076l-42.078,43.093L237.38,254.409z"/>
	<path fill="#FFFFFF" d="M260.873,305c14.953,0,27.118-12.166,27.118-27.118c0-14.953-12.165-27.12-27.118-27.12
		c-14.949,0-27.118,12.167-27.118,27.12S245.924,305,260.873,305L260.873,305z M260.873,259.422c10.18,0,18.46,8.28,18.46,18.46
		s-8.28,18.46-18.46,18.46s-18.46-8.28-18.46-18.46S250.693,259.422,260.873,259.422L260.873,259.422z"/>
	<path fill="#FFFFFF" d="M352.247,276.724c0,2.392,1.938,4.329,4.327,4.329h17.102c2.395,0,4.327-1.938,4.327-4.329
		c0-2.388-1.935-4.327-4.327-4.327h-17.102C354.182,272.396,352.247,274.336,352.247,276.724L352.247,276.724z"/>
	<path fill="#FFFFFF" d="M165.097,276.092c0-2.392-1.938-4.327-4.331-4.327h-17.098c-2.392,0-4.331,1.936-4.331,4.327
		c0,2.39,1.938,4.329,4.331,4.329h17.098C163.157,280.424,165.097,278.481,165.097,276.092L165.097,276.092z"/>
	<path fill="#FFFFFF" d="M260.873,369.982c-2.387,0-4.326,1.938-4.326,4.329v17.1c0,2.393,1.939,4.33,4.326,4.33
		c2.393,0,4.331-1.938,4.331-4.33v-17.1C265.204,371.922,263.266,369.982,260.873,369.982L260.873,369.982z"/>
	<path fill="#FFFFFF" d="M260.873,182.833c2.393,0,4.331-1.936,4.331-4.327v-17.102c0-2.392-1.938-4.327-4.331-4.327
		c-2.387,0-4.326,1.935-4.326,4.327v17.102C256.547,180.897,258.486,182.833,260.873,182.833L260.873,182.833z"/>
</g>
</svg>
