<?xml version="1.0" encoding="utf-8"?>
<!-- Generator: Adobe Illustrator 16.0.0, SVG Export Plug-In . SVG Version: 6.00 Build 0)  -->
<!DOCTYPE svg PUBLIC "-//W3C//DTD SVG 1.1//EN" "http://www.w3.org/Graphics/SVG/1.1/DTD/svg11.dtd">
<svg version="1.1" id="Capa_1" xmlns="http://www.w3.org/2000/svg" xmlns:xlink="http://www.w3.org/1999/xlink" x="0px" y="0px"
	 width="391.154px" height="360.359px" viewBox="47 98.141 391.154 360.359" enable-background="new 47 98.141 391.154 360.359"
	 xml:space="preserve">
<g>
	<g>
		<g>
			<path fill="#FFFFFF" d="M427.027,184.575L247.08,108.15c-1.598-0.679-3.405-0.679-5.004,0L62.126,184.575
				c-2.801,1.19-4.377,4.186-3.77,7.167c0.607,2.981,3.229,5.124,6.272,5.124h16.331v17.681c0,3.535,2.865,6.4,6.4,6.4h7.68v22.661
				c0,3.535,2.865,6.401,6.4,6.401h15.144V380.08h-15.145c-3.535,0-6.4,2.865-6.4,6.398v22.66H80.403
				c-3.535,0-6.401,2.869-6.401,6.4V444.6c0,3.533,2.866,6.4,6.401,6.4H408.75c3.535,0,6.4-2.867,6.4-6.4v-29.061
				c0-3.531-2.865-6.4-6.4-6.4h-14.635v-22.66c0-3.533-2.865-6.398-6.4-6.398H372.57V250.008h15.145c3.535,0,6.4-2.866,6.4-6.401
				v-22.66h7.68c3.535,0,6.402-2.865,6.402-6.4v-17.681h16.328c3.043,0,5.666-2.142,6.273-5.124
				C431.404,188.761,429.828,185.764,427.027,184.575z M244.577,120.994l148.505,63.071H96.071L244.577,120.994z M402.348,421.939
				v16.262H86.803v-16.262h14.635h286.274H402.348z M381.314,392.881v16.26H107.841v-16.26h15.145h38.724h63.506h38.723h63.507
				h38.725H381.314z M129.386,380.078v-130.07h25.923v130.07H129.386z M168.109,380.078v-130.07h50.706v130.07H168.109z
				 M231.616,380.08V250.008h25.923V380.08H231.616z M270.34,380.078v-130.07h50.705v130.07H270.34z M333.846,380.08V250.008h25.922
				V380.08H333.846z M381.314,237.208H366.17h-38.725h-63.507h-38.723h-63.506h-38.724h-15.145v-16.261h273.474V237.208
				L381.314,237.208z M395.395,208.148L395.395,208.148h-7.68H101.439h-7.679v-11.281h301.632v11.281H395.395z"/>
			<path fill="#FFFFFF" d="M244.577,137.076c-10.364,0-18.792,8.43-18.792,18.792c0,10.363,8.43,18.792,18.792,18.792
				c10.363,0,18.791-8.43,18.791-18.792C263.368,145.505,254.94,137.076,244.577,137.076z M244.577,161.858
				c-3.304,0-5.992-2.687-5.992-5.991s2.688-5.991,5.992-5.991c3.303,0,5.992,2.688,5.992,5.991
				C250.569,159.171,247.88,161.858,244.577,161.858z"/>
		</g>
	</g>
</g>
</svg>
