<?xml version="1.0" encoding="utf-8"?>
<!-- Generator: Adobe Illustrator 16.0.4, SVG Export Plug-In . SVG Version: 6.00 Build 0)  -->
<!DOCTYPE svg PUBLIC "-//W3C//DTD SVG 1.1//EN" "http://www.w3.org/Graphics/SVG/1.1/DTD/svg11.dtd">
<svg version="1.1" id="Layer_1" xmlns="http://www.w3.org/2000/svg" xmlns:xlink="http://www.w3.org/1999/xlink" x="0px" y="0px"
	 width="30.156px" height="48.25px" viewBox="0 0 30.156 48.25" enable-background="new 0 0 30.156 48.25" xml:space="preserve">
<g>
	<path fill="#4A728A" d="M29.158,14.504c0,7.743-14.42,32.712-14.42,32.712S0.317,22.247,0.317,14.504S6.773,0.485,14.738,0.485
		S29.158,6.762,29.158,14.504z"/>
	<path fill="#375463" d="M14.738,48.312l-0.475-0.821C13.672,46.467-0.231,22.305-0.231,14.504c0-8.032,6.715-14.567,14.969-14.567
		c8.254,0,14.969,6.535,14.969,14.567c0,7.8-13.902,31.962-14.494,32.987L14.738,48.312z M14.738,1.033
		c-7.65,0-13.874,6.043-13.874,13.472c0,6.723,11.388,27.215,13.874,31.606c2.486-4.391,13.873-24.883,13.873-31.606
		C28.611,7.076,22.389,1.033,14.738,1.033z"/>
</g>
<g id="Layer_4" display="none">
	<rect x="10.653" y="11.715" display="inline" fill="#FFFFFF" width="8.533" height="1.771"/>
	<path display="inline" fill="#FFFFFF" d="M10.653,7.368h8.533c0,0-1.555-2.898-4.266-2.898S10.653,7.368,10.653,7.368z"/>
	<circle display="inline" fill="#FFFFFF" cx="15.006" cy="4.328" r="0.557"/>
	<g display="inline">
		<path fill="#FFFFFF" d="M12.586,11.394h-1.127V7.69h1.127V11.394z M11.779,11.071h0.484V8.012h-0.484V11.071z"/>
	</g>
	<g display="inline">
		<path fill="#FFFFFF" d="M14.195,11.394h-1.287V7.69h1.287V11.394z M13.229,11.071h0.643V8.012h-0.643V11.071z"/>
	</g>
	<g display="inline">
		<path fill="#FFFFFF" d="M15.643,11.394h-1.287V7.69h1.287V11.394z M14.68,11.071h0.645V8.012H14.68V11.071z"/>
	</g>
	<g display="inline">
		<path fill="#FFFFFF" d="M17.094,11.394h-1.289V7.69h1.289V11.394z M16.127,11.071h0.645V8.012h-0.645V11.071z"/>
	</g>
	<g display="inline">
		<path fill="#FFFFFF" d="M18.543,11.394h-1.127V7.69h1.127V11.394z M17.736,11.071h0.484V8.012h-0.484V11.071z"/>
	</g>
	<path display="inline" fill="#FFFFFF" d="M18.703,14.13h-7.512L9.177,32.97h11.192L18.703,14.13z M12.264,24.114h-0.484v-2.094
		h0.484V24.114z M16.771,16.063h0.482v2.093h-0.482V16.063z M17.576,30.715h-0.482v-2.093h0.482V30.715z"/>
</g>
<circle fill="#FFFFFF" cx="14.875" cy="15.25" r="5.875"/>
</svg>
