<?xml version="1.0" encoding="utf-8"?>
<!-- Generator: Adobe Illustrator 16.0.0, SVG Export Plug-In . SVG Version: 6.00 Build 0)  -->
<!DOCTYPE svg PUBLIC "-//W3C//DTD SVG 1.1//EN" "http://www.w3.org/Graphics/SVG/1.1/DTD/svg11.dtd">
<svg version="1.1" id="Capa_1" xmlns="http://www.w3.org/2000/svg" xmlns:xlink="http://www.w3.org/1999/xlink" x="0px" y="0px"
	 width="612px" height="612px" viewBox="0 90 612 612" enable-background="new 0 90 612 612" xml:space="preserve">
<path fill="#3A559F" d="M0,90v612h325.928V465.598h-79.675v-96.507h79.675v-81.048c0-58.944,47.782-106.727,106.727-106.727h83.293
	v86.781h-59.601c-18.729,0-33.913,15.185-33.913,33.914v67.082h92.017l-12.717,96.506h-79.3V702H612V90H0z"/>
<path fill="#FFFFFF" d="M325.928,702V465.598h-79.675v-96.507h79.675v-96.07c0,0,12.19-78.557,96.635-91.227h93.385v86.303h-59.601
	c0,0-33.913,1.864-33.913,33.914v67.082h92.017l-12.717,96.506h-79.3V702H325.928z"/>
</svg>
