<?xml version="1.0" encoding="utf-8"?>
<!-- Generator: Adobe Illustrator 16.0.0, SVG Export Plug-In . SVG Version: 6.00 Build 0)  -->
<!DOCTYPE svg PUBLIC "-//W3C//DTD SVG 1.1//EN" "http://www.w3.org/Graphics/SVG/1.1/DTD/svg11.dtd">
<svg version="1.1" id="Capa_1" xmlns="http://www.w3.org/2000/svg" xmlns:xlink="http://www.w3.org/1999/xlink" x="0px" y="0px"
	 width="512px" height="512px" viewBox="0 0 512 512" enable-background="new 0 0 512 512" xml:space="preserve">
<path fill="#FFFFFF" d="M468.24,46.771c-17.308-17.307-40.106-28.463-65.935-32.264c-23.027-3.39-48.013-0.887-72.591,7.217
	C319.604,12.38,306.548,7.25,292.702,7.25c-14.585,0-28.296,5.68-38.606,15.992c-10.313,10.312-15.992,24.022-15.992,38.607
	c0,6.341,1.076,12.515,3.137,18.317c-28.255,31.013-46.28,68.371-51.105,106.03l-0.026-0.025l-7.429,60.688
	c-5.576,45.545-26.097,88.903-57.781,122.089l-2.982,3.124l-0.209-0.209c-3.359-3.361-8.807-3.359-12.168,0l-97.023,97.021
	c-3.36,3.361-3.36,8.809,0.001,12.169l21.175,21.176c1.615,1.613,3.803,2.521,6.085,2.521c2.282,0,4.471-0.907,6.084-2.521
	l97.022-97.021c1.615-1.614,2.52-3.804,2.52-6.085s-0.906-4.47-2.52-6.083l-0.39-0.39c35.408-35.914,82.267-58.214,132.611-62.964
	l37.781-3.565c5.028-0.138,10.138-0.516,15.312-1.159c41.106-5.117,81.658-25.852,114.188-58.38
	c32.532-32.533,53.27-73.089,58.389-114.198C505.997,110.474,494.441,72.965,468.24,46.771z M39.777,483.978l-9.008-9.008
	l84.853-84.854l9.009,9.008L39.777,483.978z M323.933,82.418c-4.477-6.278-6.898-13.766-6.898-21.631
	c0-7.425,2.154-14.516,6.161-20.57c4.474,6.278,6.895,13.767,6.895,21.631C330.09,69.273,327.938,76.364,323.933,82.418z
	 M310.19,28.785c-6.726,9.251-10.364,20.344-10.364,32.002c0,12.292,4.05,23.955,11.491,33.493
	c-5.604,3.229-11.976,4.958-18.615,4.958c-6.206,0-12.182-1.503-17.512-4.335c15.521-19.364,15.915-46.923,1.183-66.702
	c5.025-2.443,10.576-3.741,16.329-3.741C298.9,24.459,304.866,25.96,310.19,28.785z M263.027,39.108
	c9.462,13.283,9.199,31.402-0.787,44.417c-4.496-6.288-6.928-13.793-6.928-21.678C255.313,53.517,258.027,45.605,263.027,39.108z
	 M198.658,256.763c5.643,13.36,13.661,25.394,23.928,35.66c9.502,9.504,20.499,17.068,32.647,22.616
	c-35.731,6.257-69.351,20.749-98.271,42.264C178.492,327.67,192.937,292.988,198.658,256.763z M483.699,150.258
	c-4.648,37.327-23.641,74.318-53.48,104.157c-29.833,29.833-66.819,48.822-104.145,53.47c-36.525,4.549-68.959-5.264-91.318-27.631
	c-21.96-21.954-31.849-53.756-27.84-89.546c3.722-33.242,18.969-66.485,43.232-94.656c1.231,1.525,2.542,2.999,3.947,4.404
	c10.312,10.312,24.022,15.993,38.607,15.993c14.583,0,28.293-5.68,38.604-15.993c10.313-10.312,15.992-24.022,15.992-38.605
	c0-9.073-2.2-17.807-6.345-25.596c45.037-13.129,87.474-4.957,115.119,22.688C478.437,81.299,488.249,113.73,483.699,150.258z"/>
</svg>
