<?xml version="1.0" encoding="utf-8"?>
<!-- Generator: Adobe Illustrator 16.0.0, SVG Export Plug-In . SVG Version: 6.00 Build 0)  -->
<!DOCTYPE svg PUBLIC "-//W3C//DTD SVG 1.1//EN" "http://www.w3.org/Graphics/SVG/1.1/DTD/svg11.dtd">
<svg version="1.1" xmlns="http://www.w3.org/2000/svg" xmlns:xlink="http://www.w3.org/1999/xlink" x="0px" y="0px" width="612px"
	 height="612px" viewBox="0 90 612 612" enable-background="new 0 90 612 612" xml:space="preserve">
<g id="Layer_1">
	<path fill="#C536A4" d="M305.993,335.146c-33.545,0-60.86,27.301-60.86,60.847c0,33.56,27.315,60.874,60.86,60.874
		c33.56,0,60.86-27.314,60.86-60.874C366.854,362.448,339.553,335.146,305.993,335.146z M305.993,335.146
		c-33.545,0-60.86,27.301-60.86,60.847c0,33.56,27.315,60.874,60.86,60.874c33.56,0,60.86-27.314,60.86-60.874
		C366.854,362.448,339.553,335.146,305.993,335.146z M407.382,235.919H204.618c-32.364,0-58.698,26.334-58.698,58.698v202.764
		c0,32.364,26.334,58.698,58.698,58.698h202.764c32.364,0,58.698-26.334,58.698-58.698V294.618
		C466.08,262.254,439.746,235.919,407.382,235.919z M305.993,501.397c-58.107,0-105.391-47.283-105.391-105.404
		c0-58.107,47.283-105.391,105.391-105.391c58.121,0,105.404,47.283,105.404,105.391
		C411.397,454.114,364.114,501.397,305.993,501.397z M414.781,312.398c-13.751,0-24.938-11.187-24.938-24.938
		c0-13.751,11.187-24.938,24.938-24.938c13.752,0,24.938,11.187,24.938,24.938C439.72,301.211,428.533,312.398,414.781,312.398z
		 M305.993,335.146c-33.545,0-60.86,27.301-60.86,60.847c0,33.56,27.315,60.874,60.86,60.874c33.56,0,60.86-27.314,60.86-60.874
		C366.854,362.448,339.553,335.146,305.993,335.146z M407.382,235.919H204.618c-32.364,0-58.698,26.334-58.698,58.698v202.764
		c0,32.364,26.334,58.698,58.698,58.698h202.764c32.364,0,58.698-26.334,58.698-58.698V294.618
		C466.08,262.254,439.746,235.919,407.382,235.919z M305.993,501.397c-58.107,0-105.391-47.283-105.391-105.404
		c0-58.107,47.283-105.391,105.391-105.391c58.121,0,105.404,47.283,105.404,105.391
		C411.397,454.114,364.114,501.397,305.993,501.397z M414.781,312.398c-13.751,0-24.938-11.187-24.938-24.938
		c0-13.751,11.187-24.938,24.938-24.938c13.752,0,24.938,11.187,24.938,24.938C439.72,301.211,428.533,312.398,414.781,312.398z
		 M305.993,335.146c-33.545,0-60.86,27.301-60.86,60.847c0,33.56,27.315,60.874,60.86,60.874c33.56,0,60.86-27.314,60.86-60.874
		C366.854,362.448,339.553,335.146,305.993,335.146z M0,90v612h612V90H0z M510.611,497.382c0,56.926-46.304,103.229-103.229,103.229
		H204.618c-56.925,0-103.229-46.304-103.229-103.229V294.618c0-56.925,46.303-103.229,103.229-103.229h202.764
		c56.926,0,103.229,46.303,103.229,103.229V497.382L510.611,497.382z M407.382,235.919H204.618
		c-32.364,0-58.698,26.334-58.698,58.698v202.764c0,32.364,26.334,58.698,58.698,58.698h202.764
		c32.364,0,58.698-26.334,58.698-58.698V294.618C466.08,262.254,439.746,235.919,407.382,235.919z M305.993,501.397
		c-58.107,0-105.391-47.283-105.391-105.404c0-58.107,47.283-105.391,105.391-105.391c58.121,0,105.404,47.283,105.404,105.391
		C411.397,454.114,364.114,501.397,305.993,501.397z M414.781,312.398c-13.751,0-24.938-11.187-24.938-24.938
		c0-13.751,11.187-24.938,24.938-24.938c13.752,0,24.938,11.187,24.938,24.938C439.72,301.211,428.533,312.398,414.781,312.398z
		 M305.993,335.146c-33.545,0-60.86,27.301-60.86,60.847c0,33.56,27.315,60.874,60.86,60.874c33.56,0,60.86-27.314,60.86-60.874
		C366.854,362.448,339.553,335.146,305.993,335.146z M305.993,335.146c-33.545,0-60.86,27.301-60.86,60.847
		c0,33.56,27.315,60.874,60.86,60.874c33.56,0,60.86-27.314,60.86-60.874C366.854,362.448,339.553,335.146,305.993,335.146z
		 M305.993,335.146c-33.545,0-60.86,27.301-60.86,60.847c0,33.56,27.315,60.874,60.86,60.874c33.56,0,60.86-27.314,60.86-60.874
		C366.854,362.448,339.553,335.146,305.993,335.146z M407.382,235.919H204.618c-32.364,0-58.698,26.334-58.698,58.698v202.764
		c0,32.364,26.334,58.698,58.698,58.698h202.764c32.364,0,58.698-26.334,58.698-58.698V294.618
		C466.08,262.254,439.746,235.919,407.382,235.919z M305.993,501.397c-58.107,0-105.391-47.283-105.391-105.404
		c0-58.107,47.283-105.391,105.391-105.391c58.121,0,105.404,47.283,105.404,105.391
		C411.397,454.114,364.114,501.397,305.993,501.397z M414.781,312.398c-13.751,0-24.938-11.187-24.938-24.938
		c0-13.751,11.187-24.938,24.938-24.938c13.752,0,24.938,11.187,24.938,24.938C439.72,301.211,428.533,312.398,414.781,312.398z
		 M305.993,335.146c-33.545,0-60.86,27.301-60.86,60.847c0,33.56,27.315,60.874,60.86,60.874c33.56,0,60.86-27.314,60.86-60.874
		C366.854,362.448,339.553,335.146,305.993,335.146z M305.993,335.146c-33.545,0-60.86,27.301-60.86,60.847
		c0,33.56,27.315,60.874,60.86,60.874c33.56,0,60.86-27.314,60.86-60.874C366.854,362.448,339.553,335.146,305.993,335.146z
		 M305.993,335.146c-33.545,0-60.86,27.301-60.86,60.847c0,33.56,27.315,60.874,60.86,60.874c33.56,0,60.86-27.314,60.86-60.874
		C366.854,362.448,339.553,335.146,305.993,335.146z M407.382,235.919H204.618c-32.364,0-58.698,26.334-58.698,58.698v202.764
		c0,32.364,26.334,58.698,58.698,58.698h202.764c32.364,0,58.698-26.334,58.698-58.698V294.618
		C466.08,262.254,439.746,235.919,407.382,235.919z M305.993,501.397c-58.107,0-105.391-47.283-105.391-105.404
		c0-58.107,47.283-105.391,105.391-105.391c58.121,0,105.404,47.283,105.404,105.391
		C411.397,454.114,364.114,501.397,305.993,501.397z M414.781,312.398c-13.751,0-24.938-11.187-24.938-24.938
		c0-13.751,11.187-24.938,24.938-24.938c13.752,0,24.938,11.187,24.938,24.938C439.72,301.211,428.533,312.398,414.781,312.398z
		 M305.993,335.146c-33.545,0-60.86,27.301-60.86,60.847c0,33.56,27.315,60.874,60.86,60.874c33.56,0,60.86-27.314,60.86-60.874
		C366.854,362.448,339.553,335.146,305.993,335.146z"/>
</g>
<g id="Layer_2">
</g>
<g id="Layer_3">
	<path fill="#FFFFFF" d="M412.812,191.532H199.19c-92.644,9.033-97.508,95.282-97.508,95.282v218.362
		c13.183,94.01,97.508,95.31,97.508,95.31h213.258c93.948-8.681,97.665-95.985,97.665-95.985V284.475
		C495.727,191.117,412.812,191.532,412.812,191.532z M465.759,500.998c0,0-0.052,46.945-51.905,54.724H198.138
		c0,0-46.858-4.835-51.998-53.278l0.485-216.922c0,0,5.878-44.453,54.376-49.487h209.996c0,0,48.52,1.406,54.761,52.436V500.998z"/>
</g>
<g id="Layer_5">
	<circle fill="#FFFFFF" cx="414.834" cy="287.167" r="25"/>
</g>
<g id="Layer_6">
	<path fill="#FFFFFF" d="M306,291.341c-57.806,0-104.667,46.861-104.667,104.667S248.194,500.675,306,500.675
		s104.667-46.861,104.667-104.667S363.806,291.341,306,291.341z M305.897,457c-33.689,0-61-27.311-61-61s27.311-61,61-61
		s61,27.311,61,61S339.587,457,305.897,457z"/>
</g>
</svg>
