<?xml version="1.0" encoding="utf-8"?>
<!-- Generator: Adobe Illustrator 16.0.0, SVG Export Plug-In . SVG Version: 6.00 Build 0)  -->
<!DOCTYPE svg PUBLIC "-//W3C//DTD SVG 1.1//EN" "http://www.w3.org/Graphics/SVG/1.1/DTD/svg11.dtd">
<svg version="1.1" id="Layer_1" xmlns="http://www.w3.org/2000/svg" xmlns:xlink="http://www.w3.org/1999/xlink" x="0px" y="0px"
	 width="400.404px" height="201.91px" viewBox="157.833 140.666 400.404 201.91"
	 enable-background="new 157.833 140.666 400.404 201.91" xml:space="preserve">
<g id="Layer_1_1_">
</g>
<g id="Layer_2">
	<g>
		<path fill="#FFFFFF" d="M310.703,215.444c0.229-0.574,0.431-1.466,0.604-2.674c0.174-1.208,0.26-2.27,0.26-3.191
			c0-1.725-0.289-3.507-0.862-5.348c-0.577-1.838-1.639-3.507-3.191-5.002c-1.552-1.493-3.623-2.701-6.209-3.623
			c-2.587-0.919-5.951-1.38-10.091-1.38c-3.337,0-6.442,0.663-9.315,1.983c-2.876,1.324-5.579,2.906-8.107,4.744
			c-2.876,2.07-6.124,5.118-9.747,9.142c-3.622,4.027-7.045,8.539-10.264,13.542c-3.221,5.002-5.895,10.293-8.021,15.87
			c-2.129,5.58-3.191,11.015-3.191,16.302c0,2.877,0.518,5.233,1.553,7.072c1.035,1.842,2.385,3.277,4.054,4.312
			c1.666,1.035,3.593,1.755,5.779,2.156c2.183,0.4,4.425,0.604,6.728,0.604c9.66,0,18.457-2.559,26.392-7.676
			c7.935-5.116,15.466-12.563,22.598-22.34c0.345-0.459,0.631-0.688,0.862-0.688c0.458,0,0.689,0.806,0.689,2.414
			c0,0.922-0.146,1.698-0.432,2.329c-0.288,0.634-0.604,1.236-0.949,1.812c-5.291,7.935-12.277,14.174-20.958,18.715
			c-8.685,4.545-18.199,6.813-28.549,6.813c-3.337,0-6.528-0.317-9.574-0.948c-3.048-0.634-5.752-1.726-8.107-3.277
			c-2.358-1.553-4.227-3.623-5.606-6.209c-1.38-2.588-2.07-5.836-2.07-9.746c0-4.369,0.833-8.854,2.501-13.455
			c1.666-4.6,3.822-9.027,6.469-13.283c2.644-4.253,5.606-8.221,8.884-11.903c3.278-3.679,6.582-6.784,9.919-9.315
			c4.14-3.218,8.738-5.779,13.8-7.676c5.059-1.897,10.35-2.846,15.87-2.846c4.14,0,8.366,0.431,12.679,1.294
			c4.312,0.862,8.307,2.388,11.989,4.571c0.919,0.461,1.38,1.151,1.38,2.07c-0.806,1.38-1.841,3.536-3.104,6.469
			c-1.268,2.933-2.303,5.55-3.105,7.849L310.703,215.444z"/>
		<path fill="#FFFFFF" d="M425.933,155.932c0,1.841-0.087,3.221-0.259,4.14c-0.173,0.922-0.346,1.553-0.518,1.896
			c-0.173,0.345-0.347,0.431-0.519,0.259c-0.173-0.172-0.259-0.372-0.259-0.604c0-0.803-0.202-1.897-0.604-3.278
			c-0.404-1.38-1.208-2.73-2.415-4.054c-1.208-1.32-2.906-2.472-5.089-3.45c-2.188-0.976-5.004-1.466-8.453-1.466
			c-2.991,0-6.066,0.431-9.229,1.293c-3.164,0.863-6.584,2.531-10.264,5.003c-3.683,2.474-7.619,5.895-11.815,10.264
			c-4.2,4.372-8.771,10.035-13.715,16.991c-4.945,6.959-10.323,15.412-16.128,25.357c-5.808,9.948-12.161,21.708-19.062,35.276
			c0.804-0.689,2.07-1.726,3.796-3.104c1.725-1.381,3.623-2.76,5.691-4.142c2.07-1.379,4.081-2.586,6.038-3.621
			c1.954-1.035,3.623-1.553,5.002-1.553c1.035,0,1.553,0.404,1.553,1.209c0,0.689-0.518,1.725-1.553,3.104
			c-0.922,1.379-2.129,3.278-3.623,5.692c-1.496,2.416-2.962,5.002-4.398,7.763c-1.439,2.761-2.674,5.464-3.708,8.108
			c-1.035,2.646-1.554,4.771-1.554,6.381c0,1.842,0.458,3.222,1.381,4.141c0.919,0.922,2.183,1.38,3.795,1.38
			c2.644,0,6.382-1.726,11.212-5.175c4.831-3.449,10.35-9.314,16.56-17.596c0.229-0.229,0.458-0.344,0.69-0.344
			c0.229,0,0.345,0.23,0.345,0.688c-2.188,3.104-4.744,6.211-7.677,9.315c-2.933,3.104-5.924,5.924-8.97,8.451
			c-3.049,2.531-6.098,4.571-9.144,6.124c-3.048,1.554-5.838,2.329-8.366,2.329c-1.957,0-3.509-0.548-4.656-1.64
			c-1.151-1.095-1.726-2.614-1.726-4.571c0-1.838,0.63-4.195,1.897-7.072c1.264-2.873,2.674-5.777,4.226-8.711
			c1.553-2.933,2.959-5.633,4.228-8.107c1.264-2.471,1.896-4.227,1.896-5.262c0-0.574-0.173-0.861-0.518-0.861
			c-1.035,0-2.906,0.979-5.606,2.933c-2.703,1.957-6.067,5.636-10.091,11.04c-1.612,2.876-3.277,5.864-5.002,8.971
			c-1.726,3.105-3.222,5.864-4.485,8.279c-0.922,1.841-1.784,2.76-2.587,2.76c-0.577,0-1.324-0.146-2.243-0.431
			c-0.922-0.289-1.38-0.833-1.38-1.64c0-0.573,0.172-1.207,0.519-1.897c4.829-8.737,9.544-16.989,14.145-24.754
			c4.598-7.763,9.255-15.379,13.972-22.855c5.521-8.625,11.24-17.423,17.164-26.393c5.921-8.97,11.989-17.134,18.199-24.495
			c6.21-7.358,12.506-13.369,18.889-18.026c6.384-4.657,12.792-6.986,19.233-6.986c1.609,0,3.277,0.202,5.003,0.604
			c1.725,0.404,3.363,1.064,4.916,1.984c1.553,0.922,2.816,2.215,3.795,3.881C425.441,151.131,425.933,153.288,425.933,155.932z"/>
		<path fill="#FFFFFF" d="M418.688,245.977c-2.646,3.222-5.55,6.469-8.712,9.746c-3.163,3.277-6.354,6.24-9.572,8.885
			c-3.223,2.646-6.412,4.772-9.574,6.383c-3.164,1.609-6.067,2.415-8.711,2.415c-2.302,0-3.911-0.577-4.83-1.726
			c-0.922-1.15-1.38-2.588-1.38-4.312c0-1.609,0.486-3.767,1.466-6.47c0.976-2.7,2.442-5.605,4.399-8.711
			c-1.496,1.957-3.223,4.026-5.176,6.209c-1.957,2.188-3.969,4.17-6.038,5.951c-2.068,1.785-4.14,3.278-6.21,4.485
			c-2.069,1.208-3.91,1.812-5.52,1.812c-2.416,0-3.623-1.207-3.623-3.623c0-2.644,1.035-5.979,3.105-10.004
			c2.068-4.024,4.855-7.906,8.364-11.645c3.509-3.736,7.504-6.957,11.989-9.66c4.485-2.701,9.143-4.054,13.973-4.054
			c0.574-1.148,1.093-1.954,1.554-2.415c0.458-0.458,0.919-0.803,1.38-1.035l4.83-1.38l0.345,0.172
			c-0.577,0.577-1.121,1.293-1.639,2.156c-0.519,0.862-1.064,1.754-1.64,2.674c0.574,0,1.438,0.06,2.587,0.172
			c1.148,0.116,2.012,0.231,2.589,0.345c0.573,0.231,0.861,0.518,0.861,0.862s-0.172,0.519-0.518,0.519
			c-0.689-0.229-1.726-0.402-3.104-0.519c-1.38-0.112-2.415-0.172-3.104-0.172c-5.291,9.315-9.172,16.706-11.645,22.166
			c-2.475,5.464-3.709,9.519-3.709,12.162c0,1.034,0.259,1.897,0.776,2.587s1.58,1.035,3.19,1.035c1.839,0,4.024-0.663,6.556-1.983
			c2.527-1.321,5.23-3.162,8.106-5.521c2.874-2.355,5.836-5.09,8.885-8.193c3.046-3.104,5.95-6.383,8.712-9.833
			c0.229-0.345,0.458-0.431,0.688-0.258C418.571,245.373,418.688,245.632,418.688,245.977z M391.777,232.867
			c-3.911,0-7.649,1.38-11.213,4.14c-3.566,2.761-6.729,6.011-9.487,9.746c-2.761,3.739-4.977,7.447-6.643,11.126
			c-1.668,3.682-2.501,6.383-2.501,8.107c0,0.922,0.346,1.381,1.035,1.381c0.69,0,1.752-0.459,3.19-1.381
			c1.438-0.92,3.076-2.155,4.917-3.709c1.838-1.553,3.708-3.363,5.605-5.435c1.897-2.069,3.649-4.312,5.262-6.727
			c1.839-2.761,3.623-5.693,5.348-8.798c1.725-3.105,3.277-5.865,4.657-8.28L391.777,232.867z"/>
		<path fill="#FFFFFF" d="M462.674,247.357c-2.068,2.875-4.458,5.777-7.158,8.711c-2.703,2.932-5.578,5.549-8.625,7.849
			c-3.049,2.302-6.152,4.199-9.314,5.692c-3.164,1.492-6.239,2.242-9.229,2.242c-1.38,0-2.646-0.203-3.795-0.604
			c-1.15-0.404-1.726-1.409-1.726-3.019c0-1.61,0.574-3.649,1.726-6.125c1.148-2.472,2.501-5.088,4.054-7.849
			c1.554-2.76,3.161-5.577,4.83-8.452c1.666-2.873,3.02-5.521,4.055-7.936c0.229-0.574,0.259-1.062,0.086-1.467
			c-0.172-0.4-0.547-0.432-1.121-0.086c-1.268,0.807-2.76,1.897-4.485,3.276c-1.725,1.381-3.479,2.847-5.261,4.399
			c-1.784,1.552-3.51,3.135-5.175,4.742c-1.669,1.612-3.021,3.05-4.054,4.312c-1.842,2.877-3.425,5.521-4.744,7.936
			c-1.323,2.416-2.962,5.119-4.916,8.107c-0.461,0.689-0.807,1.035-1.035,1.035c-0.577,0-1.064-0.631-1.466-1.896
			c-0.404-1.266-0.604-2.07-0.604-2.416c0-1.035,0.717-2.441,2.156-4.227c1.437-1.781,3.019-3.766,4.744-5.951
			c1.838-3.679,3.734-7.561,5.691-11.645c1.954-4.08,3.622-7.732,5.003-10.953c0.346-0.574,0.862-0.863,1.553-0.863
			c0.689,0,1.32,0.289,1.896,0.863c0.574,0.576,0.863,1.208,0.863,1.896c0,0.461-0.836,2.043-2.502,4.744
			c-1.668,2.703-3.308,5.838-4.916,9.401c2.184-1.954,4.571-4.024,7.159-6.21c2.587-2.184,5.059-4.196,7.417-6.038
			c2.354-1.838,4.426-3.363,6.21-4.571c1.781-1.208,3.019-1.812,3.709-1.812c0.458,0,0.89,0.26,1.294,0.777
			c0.401,0.518,0.604,1.008,0.604,1.465c0,0.461-0.288,1.151-0.861,2.07c-1.268,1.842-2.819,4.2-4.658,7.073
			c-1.841,2.876-3.595,5.838-5.261,8.884c-1.668,3.049-3.078,5.951-4.228,8.711s-1.725,4.946-1.725,6.557
			c0,1.379,0.285,2.328,0.862,2.846c0.573,0.518,1.492,0.775,2.76,0.775c1.954,0,4.254-0.746,6.899-2.242
			c2.645-1.492,5.374-3.363,8.193-5.605c2.817-2.242,5.49-4.742,8.021-7.504c2.528-2.76,4.6-5.404,6.211-7.936
			c0.229-0.346,0.573-0.432,1.034-0.26C463.305,246.236,463.248,246.667,462.674,247.357z"/>
		<path fill="#FFFFFF" d="M493.724,206.647c-0.921,0.232-1.956,0.663-3.104,1.293c-1.151,0.634-2.015,1.41-2.588,2.329
			c-2.646,3.682-5.204,7.533-7.677,11.557c-2.475,4.027-4.858,8.051-7.158,12.074h21.391c0.345,0.232,0.518,0.461,0.518,0.69
			c0,0.232-0.115,0.404-0.346,0.519c-0.922,0-2.302,0.029-4.14,0.086c-1.841,0.059-3.854,0.146-6.037,0.259
			c-2.187,0.116-4.429,0.231-6.728,0.345c-2.303,0.116-4.312,0.232-6.038,0.346c-3.222,5.752-5.692,10.639-7.417,14.662
			c-1.727,4.026-2.588,7.532-2.588,10.522c0,4.14,1.896,6.209,5.691,6.209c1.839,0,3.938-0.487,6.297-1.466
			c2.355-0.977,4.856-2.271,7.503-3.883c0.347-0.344,0.69-0.313,1.035,0.088c0.346,0.404,0.229,0.72-0.345,0.947
			c-3.911,2.531-7.533,4.373-10.867,5.521c-3.337,1.148-6.729,1.725-10.178,1.725c-1.842,0-3.45-0.547-4.83-1.639
			s-2.07-2.959-2.07-5.605c0-2.3,1.035-5.692,3.105-10.179c2.068-4.483,5.114-10.004,9.143-16.56
			c-1.38,0.115-3.078,0.259-5.089,0.431c-2.014,0.174-3.191,0.261-3.536,0.261c-0.577,0-0.862-0.229-0.862-0.69
			c0.458-0.804,1.207-1.609,2.242-2.415l8.797-0.172c1.035-1.725,2.185-3.649,3.45-5.779c1.266-2.126,2.528-4.253,3.795-6.382
			c1.266-2.126,2.56-4.197,3.882-6.21c1.32-2.011,2.501-3.881,3.536-5.606c1.265-0.574,3.02-1.321,5.262-2.243
			c2.242-0.919,4.227-1.666,5.95-2.242c0.229,0,0.402,0.146,0.519,0.431C494.354,206.159,494.183,206.418,493.724,206.647z"/>
		<path fill="#FFFFFF" d="M525.98,234.419c-0.689,0.806-1.409,1.784-2.156,2.933c-0.749,1.15-1.236,2.014-1.466,2.588
			c-0.116,0.345-0.346,0.518-0.69,0.518c-0.115,0-0.288-0.173-0.517-0.518c-0.232-0.347-0.549-0.717-0.949-1.121
			c-0.404-0.402-0.949-0.776-1.64-1.121c-0.689-0.346-1.669-0.518-2.933-0.518c-1.496,0-3.164,0.518-5.003,1.553
			c-1.841,1.035-3.449,2.186-4.829,3.449c-2.187,1.842-4.113,3.854-5.778,6.036c-1.669,2.188-3.25,4.459-4.743,6.814
			c-1.496,2.358-2.934,4.772-4.312,7.245c-1.381,2.474-2.876,4.976-4.485,7.504c-0.115,0.345-0.461,0.518-1.034,0.518
			c-0.231,0-0.721-0.346-1.466-1.035c-0.75-0.689-1.123-1.207-1.123-1.553c0-0.689,0.402-1.725,1.209-3.105
			c1.838-3.217,3.709-6.467,5.605-9.744c1.897-3.278,3.679-6.354,5.348-9.229c1.665-2.873,3.133-5.374,4.398-7.504
			c1.264-2.126,2.127-3.708,2.587-4.744c0.574-1.034,0.978-1.552,1.208-1.552c0.229,0,0.803,0.288,1.725,0.861
			c0.921,0.578,1.381,1.381,1.381,2.416c0,0.345-0.202,0.922-0.604,1.725c-0.404,0.807-0.862,1.639-1.38,2.502
			c-0.518,0.862-1.008,1.697-1.466,2.501c-0.461,0.806-0.808,1.38-1.035,1.726c-0.345,0.576-0.404,0.861-0.173,0.861
			c0.229,0,0.518-0.172,0.861-0.518c1.148-1.147,2.56-2.414,4.228-3.795c1.666-1.379,3.421-2.674,5.262-3.881
			c1.838-1.209,3.649-2.213,5.435-3.02c1.78-0.803,3.362-1.208,4.742-1.208c1.035,0,1.926,0.259,2.675,0.776
			C525.606,233.298,525.98,233.845,525.98,234.419z"/>
		<path fill="#FFFFFF" d="M523.91,267.712c-1.612,0-2.876-0.345-3.795-1.035c-0.922-0.688-1.38-1.725-1.38-3.104
			c0-2.3,1.405-5.72,4.226-10.265c2.817-4.541,6.237-9.92,10.265-16.129c0.458-0.574,0.832-1.006,1.121-1.294
			c0.285-0.286,0.604-0.544,0.948-0.776c0.574-0.112,1.352-0.258,2.329-0.431c0.976-0.172,1.579-0.259,1.812-0.259
			c0.458,0,0.689,0.172,0.689,0.518c-4.14,7.246-7.619,13.14-10.438,17.682c-2.818,4.544-4.226,8.081-4.226,10.607
			c0,1.381,0.631,2.07,1.897,2.07c0.573,0,1.319-0.173,2.241-0.518c0.919-0.346,1.897-0.803,2.934-1.381
			c1.035-0.573,2.011-1.178,2.933-1.812c0.919-0.631,1.609-1.233,2.07-1.812c1.034-1.034,2.558-3.478,4.57-7.332
			c2.011-3.852,4.455-8.364,7.331-13.541c1.381-2.527,2.675-4.656,3.882-6.381c1.208-1.726,2.213-2.588,3.019-2.588
			c0.458,0.231,0.89,0.807,1.294,1.726c0.401,0.922,0.604,1.841,0.604,2.76c0,0.461-0.519,1.524-1.553,3.192
			s-2.357,3.621-3.968,5.863c-1.612,2.243-3.364,4.631-5.262,7.159c-1.897,2.53-3.708,4.89-5.435,7.072
			c-4.14,6.326-8.31,12.853-12.506,19.578c-4.199,6.728-8.426,13.224-12.679,19.493c-4.254,6.267-8.625,12.188-13.11,17.768
			c-4.484,5.576-9.111,10.436-13.886,14.576c-4.771,4.14-9.717,7.417-14.835,9.832c-5.116,2.415-10.493,3.623-16.129,3.623
			c-3.334,0-6.323-0.807-8.971-2.415c-2.645-1.612-3.968-4.429-3.968-8.453c0-0.922,0.086-1.87,0.26-2.847
			c0.172-0.979,0.373-1.754,0.604-2.328c0.116-0.346,0.288-0.576,0.518-0.689c0.231-0.115,0.346,0.057,0.346,0.518
			c0,3.104,1.15,5.922,3.45,8.453c2.302,2.527,6.383,3.795,12.247,3.795c4.717,0,9.4-1.182,14.059-3.537
			c4.658-2.357,9.202-5.492,13.628-9.4c4.429-3.911,8.711-8.452,12.852-13.628c4.141-5.175,8.138-10.581,11.988-16.215
			c3.853-5.636,7.504-11.3,10.954-16.991s6.611-11.066,9.487-16.129c0.229-0.458,0.229-0.631,0-0.518
			c-0.231,0.115-0.404,0.231-0.519,0.346c-1.267,1.035-2.991,2.156-5.175,3.363S526.209,267.712,523.91,267.712z"/>
	</g>
</g>
<g id="Layer_3">
	<g>
		<path fill="#FFFFFF" d="M303.758,279.443v26.955h-6.119v-26.955H303.758z"/>
		<path fill="#FFFFFF" d="M309.239,300.12c1.64,0.84,4.16,1.68,6.759,1.68c2.799,0,4.279-1.159,4.279-2.919
			c0-1.68-1.28-2.64-4.52-3.8c-4.479-1.56-7.398-4.039-7.398-7.958c0-4.6,3.839-8.119,10.198-8.119c3.039,0,5.279,0.641,6.878,1.36
			l-1.358,4.919c-1.08-0.521-3-1.28-5.64-1.28c-2.639,0-3.919,1.2-3.919,2.601c0,1.72,1.521,2.479,4.999,3.799
			c4.76,1.761,6.999,4.24,6.999,8.039c0,4.52-3.479,8.358-10.878,8.358c-3.079,0-6.119-0.801-7.639-1.641L309.239,300.12z"/>
		<path fill="#FFFFFF" d="M330.639,279.443h6.119v21.837h10.718v5.118h-16.837V279.443L330.639,279.443z"/>
		<path fill="#FFFFFF" d="M357.597,299.48l-1.919,6.918h-6.319l8.238-26.955h7.999l8.358,26.955h-6.561l-2.079-6.918H357.597z
			 M364.436,294.921l-1.68-5.719c-0.479-1.601-0.96-3.601-1.359-5.199h-0.079c-0.4,1.601-0.802,3.64-1.24,5.199l-1.601,5.719
			H364.436z"/>
		<path fill="#FFFFFF" d="M377.558,306.398v-26.955h7.119l5.6,9.879c1.6,2.84,3.198,6.199,4.398,9.238h0.12
			c-0.4-3.561-0.521-7.199-0.521-11.238v-7.879h5.6v26.955h-6.399l-5.759-10.397c-1.6-2.879-3.358-6.358-4.68-9.519l-0.119,0.039
			c0.159,3.561,0.239,7.359,0.239,11.76v8.117H377.558z"/>
		<path fill="#FFFFFF" d="M405.157,279.804c2.239-0.358,5.159-0.56,8.237-0.56c5.119,0,8.438,0.92,11.038,2.879
			c2.801,2.08,4.561,5.398,4.561,10.159c0,5.159-1.88,8.718-4.479,10.918c-2.839,2.358-7.157,3.479-12.438,3.479
			c-3.16,0-5.399-0.2-6.919-0.399V279.804z M411.276,301.8c0.52,0.12,1.358,0.12,2.118,0.12c5.521,0.04,9.119-2.999,9.119-9.438
			c0.04-5.6-3.239-8.56-8.479-8.56c-1.359,0-2.239,0.12-2.759,0.24V301.8z"/>
		<path fill="#FFFFFF" d="M444.717,284.562h-7.238v-5.119h20.717v5.119h-7.358v21.836h-6.119L444.717,284.562L444.717,284.562z"/>
		<path fill="#FFFFFF" d="M484.953,292.643c0,8.838-5.359,14.196-13.238,14.196c-7.998,0-12.678-6.038-12.678-13.717
			c0-8.079,5.159-14.118,13.118-14.118C480.434,279.004,484.953,285.203,484.953,292.643z M465.477,293.002
			c0,5.279,2.479,8.998,6.56,8.998c4.119,0,6.479-3.919,6.479-9.158c0-4.839-2.319-8.999-6.52-8.999
			C467.876,283.843,465.477,287.764,465.477,293.002z"/>
		<path fill="#FFFFFF" d="M495.036,279.443v15.518c0,4.641,1.76,6.999,4.879,6.999c3.199,0,4.959-2.239,4.959-6.999v-15.518h6.079
			v15.117c0,8.318-4.199,12.277-11.238,12.277c-6.799,0-10.798-3.759-10.798-12.357v-15.037H495.036L495.036,279.443z"/>
		<path fill="#FFFFFF" d="M516.236,279.804c1.96-0.319,4.879-0.56,8.117-0.56c4,0,6.8,0.6,8.72,2.119
			c1.6,1.279,2.479,3.16,2.479,5.64c0,3.438-2.438,5.799-4.759,6.64v0.119c1.88,0.76,2.919,2.561,3.6,5.039
			c0.841,3.039,1.681,6.559,2.199,7.6h-6.239c-0.438-0.76-1.078-2.961-1.879-6.279c-0.721-3.359-1.88-4.279-4.358-4.319h-1.84V306.4
			h-6.039V279.804L516.236,279.804z M522.275,291.402h2.398c3.039,0,4.839-1.521,4.839-3.881c0-2.479-1.68-3.72-4.479-3.758
			c-1.48,0-2.32,0.118-2.76,0.198L522.275,291.402L522.275,291.402z"/>
		<path fill="#FFFFFF" d="M540.156,300.12c1.64,0.84,4.159,1.68,6.759,1.68c2.799,0,4.279-1.159,4.279-2.919
			c0-1.68-1.28-2.64-4.521-3.8c-4.479-1.56-7.397-4.039-7.397-7.958c0-4.6,3.839-8.119,10.197-8.119c3.039,0,5.279,0.641,6.879,1.36
			l-1.359,4.919c-1.079-0.521-2.999-1.28-5.64-1.28c-2.64,0-3.92,1.2-3.92,2.601c0,1.72,1.521,2.479,5,3.799
			c4.76,1.761,6.998,4.24,6.998,8.039c0,4.52-3.479,8.358-10.878,8.358c-3.079,0-6.119-0.801-7.639-1.641L540.156,300.12z"/>
	</g>
</g>
<g id="Layer_4">
	<rect x="167" y="190" fill="#FFFFFF" width="53" height="11"/>
	<path fill="#FFFFFF" d="M167,163h53c0,0-9.667-18-26.5-18S167,163,167,163z"/>
	<circle fill="#FFFFFF" cx="194.039" cy="144.122" r="3.456"/>
	<rect x="173" y="166" fill="none" stroke="#FFFFFF" stroke-width="2" stroke-miterlimit="10" width="5" height="21"/>
	<rect x="182" y="166" fill="none" stroke="#FFFFFF" stroke-width="2" stroke-miterlimit="10" width="6" height="21"/>
	<rect x="191" y="166" fill="none" stroke="#FFFFFF" stroke-width="2" stroke-miterlimit="10" width="6" height="21"/>
	<rect x="200" y="166" fill="none" stroke="#FFFFFF" stroke-width="2" stroke-miterlimit="10" width="6" height="21"/>
	<rect x="210" y="166" fill="none" stroke="#FFFFFF" stroke-width="2" stroke-miterlimit="10" width="5" height="21"/>
	<path fill="#FFFFFF" d="M217,205h-46.667l-12.5,117h69.5L217,205z M177,267h-3v-13h3V267z M205,217h3v13h-3V217z M210,308h-3v-13h3
		V308z"/>
</g>
</svg>
