<?xml version="1.0" encoding="utf-8"?>
<!-- Generator: Adobe Illustrator 16.0.0, SVG Export Plug-In . SVG Version: 6.00 Build 0)  -->
<!DOCTYPE svg PUBLIC "-//W3C//DTD SVG 1.1//EN" "http://www.w3.org/Graphics/SVG/1.1/DTD/svg11.dtd">
<svg version="1.1" id="Capa_1" xmlns="http://www.w3.org/2000/svg" xmlns:xlink="http://www.w3.org/1999/xlink" x="0px" y="0px"
	 width="512px" height="512px" viewBox="0 0 512 512" enable-background="new 0 0 512 512" xml:space="preserve">
<g>
	<g>
		<g>
			<g>
				<defs>
					<rect id="SVGID_1_" x="120.496" width="264.207" height="512"/>
				</defs>
				<clipPath id="SVGID_2_">
					<use xlink:href="#SVGID_1_"  overflow="visible"/>
				</clipPath>
				<path clip-path="url(#SVGID_2_)" fill="#FFFFFF" d="M290.246,74.229h-18.004c-2.448,0-4.426,1.985-4.426,4.428
					c0,2.448,1.98,4.432,4.426,4.432h18.004c2.448,0,4.434-1.984,4.434-4.432C294.68,76.214,292.694,74.229,290.246,74.229
					L290.246,74.229z"/>
			</g>
		</g>
		<g>
			<g>
				<defs>
					<rect id="SVGID_3_" x="120.496" width="264.207" height="512"/>
				</defs>
				<clipPath id="SVGID_4_">
					<use xlink:href="#SVGID_3_"  overflow="visible"/>
				</clipPath>
				<path clip-path="url(#SVGID_4_)" fill="#FFFFFF" d="M383.992,506.244L335.713,169.97h6.574c6.021,0,10.922-4.896,10.922-10.916
					V116.88c0-6.021-4.896-10.921-10.922-10.921h-13.979V51.151h13.6c2.071,0,3.867-1.441,4.317-3.467
					c0.461-2.02-0.555-4.085-2.43-4.971l-89.641-42.29c-1.196-0.564-2.579-0.564-3.78,0l-89.64,42.29
					c-1.873,0.886-2.885,2.952-2.433,4.977c0.455,2.021,2.251,3.461,4.326,3.461h14.479v54.809H162.24
					c-6.02,0-10.916,4.9-10.916,10.921v42.173c0,6.02,4.896,10.916,10.916,10.916h6.58l-7.974,55.542
					c-0.158,0.453-0.258,0.931-0.258,1.435c0,0.076,0.02,0.142,0.02,0.213l-40.066,279.084c-0.185,1.271,0.192,2.56,1.038,3.532
					c0.84,0.967,2.061,1.526,3.344,1.526h254.681c1.282,0,2.504-0.56,3.349-1.531C383.794,508.799,384.17,507.512,383.992,506.244z
					 M252.262,9.328l69.874,32.962H182.399L252.262,9.328z M319.447,51.151v54.809h-11.658V51.151H319.447z M254.236,74.229h-47.888
					V51.15h92.579v54.809h-92.579V83.088h47.888c2.448,0,4.426-1.984,4.426-4.432C258.664,76.214,256.685,74.229,254.236,74.229z
					 M197.488,51.151v54.809h-11.521V51.151H197.488z M160.181,116.88c0-1.135,0.926-2.061,2.061-2.061h180.045
					c1.141,0,2.062,0.926,2.062,2.061v24.494H160.181V116.88z M162.236,161.114c-1.129-0.005-2.056-0.926-2.056-2.061v-8.82h184.168
					v8.82c0,1.135-0.927,2.056-2.062,2.056L162.236,161.114z M138.517,443.358h0.164c0.049-2.166,0.441-4.319,1.181-6.336
					c0.04-0.871,0.117-1.715,0.256-2.52h-0.33l5.655-39.382h0.935c0.295-1.688,0.598-3.376,0.902-5.062
					c0.121-1.255,0.215-2.524,0.305-3.793h-0.871l1.52-10.586c0.397-5.985,1.013-11.979,2.552-17.775l8.019-55.87h1.486
					c-0.543-2.928-0.435-5.993,0.329-8.86h-0.543l8.875-61.802h1.025c-0.04-0.663-0.036-1.328-0.013-1.993
					c-0.109-2.322,0.179-4.661,0.863-6.866h-0.604l7.542-52.544h148.992l7.542,52.544h-0.348c0.129,0.761,0.197,1.533,0.237,2.304
					c0.669,2.089,1.09,4.208,1.324,6.557h0.059l5.687,39.614c0.298,1.261,0.479,2.563,0.491,3.901c0.023,2.37,0.17,4.735,0.33,7.099
					h0.759l1.608,11.186h-0.245c0.357,2.994,0.521,5.902,0.479,8.86h1.035l8.874,61.803h-1.148c0.85,2.042,1.331,4.269,1.331,6.595
					v2.267h1.084l8.874,61.805h-0.295c0.813,2.889,1.274,5.851,1.38,8.855h0.189l6.239,43.46H132.277L138.517,443.358z
					 M130.038,502.442l0.967-6.763h242.518l0.973,6.763H130.038z"/>
			</g>
		</g>
		<g>
			<g>
				<defs>
					<rect id="SVGID_5_" x="120.496" width="264.207" height="512"/>
				</defs>
				<clipPath id="SVGID_6_">
					<use xlink:href="#SVGID_5_"  overflow="visible"/>
				</clipPath>
				<path clip-path="url(#SVGID_6_)" fill="#FFFFFF" d="M130.038,502.442"/>
			</g>
		</g>
	</g>
</g>
</svg>
