<?xml version="1.0" encoding="utf-8"?>
<!-- Generator: Adobe Illustrator 16.0.0, SVG Export Plug-In . SVG Version: 6.00 Build 0)  -->
<!DOCTYPE svg PUBLIC "-//W3C//DTD SVG 1.1//EN" "http://www.w3.org/Graphics/SVG/1.1/DTD/svg11.dtd">
<svg version="1.1" id="Capa_1" xmlns="http://www.w3.org/2000/svg" xmlns:xlink="http://www.w3.org/1999/xlink" x="0px" y="0px"
	 width="505.152px" height="120.454px" viewBox="3.848 194.958 505.152 120.454"
	 enable-background="new 3.848 194.958 505.152 120.454" xml:space="preserve">
<g>
	<path fill="#FFFFFF" d="M10.63,240.507h0.025c0-0.157-0.025-0.289-0.016-0.449c0.242-3.448,3.258-6.021,6.701-5.819
		c0.007,0,0.048,0,0.06,0c0,0,0.029,0,0.041,0c1.772,0.114,35.853,1.916,52.002-13.164c5.517-5.151,8.205-11.644,8.205-19.839
		c0-3.472,2.808-6.279,6.273-6.279c0,0,0,0,0.011,0c3.464,0,6.278,2.812,6.278,6.279c0,8.195,2.675,14.688,8.202,19.839
		c12.776,11.934,36.799,13.297,47.14,13.278c11.585-0.288,31.592-2.423,42.916-12.927c5.614-5.186,8.334-11.81,8.334-20.189
		c0-3.472,2.819-6.279,6.286-6.279c3.464,0,6.277,2.812,6.277,6.279c0,8.195,2.682,14.688,8.201,19.839
		c11.894,11.111,33.529,13.044,44.814,13.263c11.675-0.355,31.134-2.616,42.256-12.912c5.605-5.186,8.332-11.81,8.332-20.189
		c0-3.472,2.816-6.279,6.282-6.279c3.469,0,6.282,2.812,6.282,6.279c0,8.195,2.677,14.688,8.193,19.839
		c11.975,11.183,33.808,13.073,45.024,13.263c11.664-0.355,31.19-2.589,42.335-12.912c5.614-5.186,8.343-11.81,8.343-20.189
		c0-3.472,2.816-6.279,6.275-6.279c3.486,0,6.288,2.812,6.288,6.279c0,8.195,2.682,14.688,8.198,19.839
		c16.502,15.398,51.738,13.19,52.095,13.164c3.453-0.203,6.463,2.371,6.7,5.819c0.243,3.472-2.363,6.461-5.824,6.707
		c-1.66,0.114-40.989,2.643-61.52-16.487c-2.26-2.109-4.229-4.407-5.872-6.861c-4.686,7.183-11.978,12.881-21.723,16.876
		c-8.378,3.44-17.506,5.135-25.315,5.952c-0.639,0.273-1.312,0.482-2.027,0.519c-0.426,0.032-3.433,0.219-7.966,0.165
		c-1.345,0.026-2.577,0.054-3.667,0.054c-3.591,0-6.801-0.011-9.088-0.867c-13.16-1.48-29.722-5.506-40.797-15.839
		c-2.28-2.109-4.237-4.407-5.876-6.861c-4.69,7.183-11.982,12.881-21.721,16.876c-8.244,3.368-17.199,5.071-24.911,5.907
		c-0.664,0.307-1.381,0.527-2.144,0.565c-0.433,0.032-3.523,0.235-8.174,0.165c-1.367,0.026-2.638,0.054-3.761,0.054
		c-3.65,0-6.88-0.027-9.168-0.91c-13.105-1.526-29.45-5.567-40.425-15.796c-2.276-2.109-4.233-4.407-5.869-6.861
		c-4.692,7.183-11.983,12.881-21.726,16.876c-9.746,4.001-20.5,5.645-29.031,6.297c-0.333,0.09-0.662,0.159-1.022,0.168
		c-0.169,0.015-0.768,0.061-1.687,0.087c-1.563,0.121-3.296,0.131-5.129,0.131c-0.333,0-0.7-0.01-1.062-0.01
		c-0.36,0-0.721,0.01-1.056,0.01c-2.563,0-4.915-0.01-6.899-0.317c-8.66-0.602-19.849-2.227-29.965-6.372
		c-9.694-3.991-16.972-9.654-21.652-16.789c-4.7,7.139-11.973,12.803-21.673,16.789c-14.19,5.818-30.513,6.69-38.979,6.69
		c-1.833,0-3.567-0.01-5.125-0.131c-0.919-0.026-1.515-0.072-1.697-0.087c-1.051-0.069-2.01-0.412-2.857-0.952
		c-1.534-0.741-2.535-2.01-2.831-4.073c-0.06-0.308-0.1-0.606-0.114-0.925C10.655,240.704,10.63,240.627,10.63,240.507z
		 M495.523,302.681c-0.35,0.026-35.594,2.247-52.098-13.145c-5.517-5.158-8.201-11.645-8.201-19.854c0-3.477-2.806-6.277-6.28-6.277
		c-3.463,0-6.277,2.801-6.277,6.277c0,8.392-2.731,15.001-8.339,20.188c-11.151,10.335-30.679,12.563-42.344,12.923
		c-11.22-0.197-33.042-2.096-45.017-13.27c-5.523-5.149-8.201-11.641-8.201-19.853c0-3.465-2.815-6.271-6.276-6.271
		c-3.473,0-6.287,2.806-6.287,6.271c0,8.393-2.727,15.001-8.333,20.196c-11.121,10.302-30.571,12.546-42.251,12.904
		c-11.287-0.202-32.919-2.154-44.816-13.248c-5.517-5.157-8.2-11.641-8.2-19.852c0-3.476-2.818-6.277-6.279-6.277
		c-3.471,0-6.286,2.802-6.286,6.277c0,8.386-2.72,14.994-8.331,20.189c-11.324,10.494-31.333,12.631-42.916,12.932
		c-10.346,0-34.367-1.336-47.144-13.279c-5.523-5.153-8.198-11.645-8.198-19.854c0-3.47-2.819-6.27-6.279-6.27
		c-0.011,0-0.011,0-0.011,0c-3.471,0-6.274,2.8-6.274,6.27c0,8.21-2.687,14.701-8.206,19.854
		c-16.147,15.065-50.229,13.269-52.003,13.161c-0.011,0-0.038-0.011-0.038-0.011c-0.009,0-0.054,0-0.06,0
		c-3.444-0.19-6.459,2.374-6.701,5.839c-0.01,0.139,0.016,0.289,0.016,0.428H3.848c0,0.111,0.032,0.202,0.032,0.32
		c0.016,0.3,0.054,0.599,0.115,0.909c0.294,2.062,1.292,3.336,2.83,4.089c0.847,0.524,1.808,0.883,2.859,0.953
		c0.173,0.017,0.777,0.049,1.696,0.092c1.553,0.117,3.288,0.117,5.124,0.117c8.468,0,24.791-0.866,38.979-6.692
		c9.7-3.973,16.975-9.646,21.671-16.787c4.681,7.142,11.963,12.819,21.656,16.787c10.117,4.146,21.306,5.783,29.967,6.372
		c1.974,0.31,4.335,0.319,6.896,0.319c0.34,0,0.697,0,1.059,0c0.36,0,0.732,0,1.06,0c1.834,0,3.558,0,5.129-0.118
		c0.92-0.042,1.51-0.073,1.687-0.091c0.355-0.027,0.69-0.103,1.024-0.165c8.528-0.652,19.281-2.315,29.028-6.317
		c9.739-3.997,17.031-9.694,21.728-16.873c1.635,2.469,3.588,4.748,5.867,6.875c10.977,10.232,27.323,14.263,40.427,15.78
		c2.288,0.899,5.517,0.909,9.168,0.909c1.116,0,2.391-0.01,3.76-0.055c4.661,0.069,7.744-0.124,8.172-0.149
		c0.769-0.06,1.485-0.262,2.142-0.565c7.716-0.83,16.674-2.534,24.911-5.922c9.735-3.997,17.027-9.694,21.72-16.873
		c1.647,2.469,3.599,4.748,5.875,6.875c11.083,10.332,27.639,14.338,40.807,15.823c2.289,0.856,5.488,0.866,9.076,0.866
		c1.102,0,2.327-0.01,3.673-0.055c4.538,0.069,7.536-0.124,7.959-0.149c0.727-0.06,1.401-0.246,2.03-0.512
		c7.819-0.83,16.942-2.536,25.321-5.976c9.739-3.995,17.031-9.693,21.725-16.873c1.639,2.47,3.601,4.75,5.867,6.876
		c20.53,19.132,59.868,16.604,61.521,16.485c3.467-0.247,6.075-3.249,5.829-6.696C501.979,305.05,498.976,302.491,495.523,302.681z"
		/>
</g>
</svg>
