<?xml version="1.0" encoding="utf-8"?>
<!-- Generator: Adobe Illustrator 16.0.0, SVG Export Plug-In . SVG Version: 6.00 Build 0)  -->
<!DOCTYPE svg PUBLIC "-//W3C//DTD SVG 1.1//EN" "http://www.w3.org/Graphics/SVG/1.1/DTD/svg11.dtd">
<svg version="1.1" id="Layer_1" xmlns="http://www.w3.org/2000/svg" xmlns:xlink="http://www.w3.org/1999/xlink" x="0px" y="0px"
	 width="3895.855px" height="560px" viewBox="-1482.876 0 3895.855 560" enable-background="new -1482.876 0 3895.855 560"
	 xml:space="preserve">
<g>
	<path fill="#E6D39F" d="M408.152,362.118l44.297-42.631c-1.075-0.617-1.971-1.423-2.695-2.357l-43.852,42.203
		C406.831,360.119,407.583,361.064,408.152,362.118z"/>
	<path fill="#E6D39F" d="M390.853,373.816l-8.611,8.287l2.479,2.563l8.596-8.271C392.318,375.69,391.498,374.812,390.853,373.816z"
		/>
</g>
<g>
	<path fill="#E6D39F" d="M592.953,179.318L575.9,195.731c0.074,0.249,0.142,0.5,0.2,0.755c0.824,0.544,1.54,1.2,2.137,1.947
		l17.194-16.551L592.953,179.318z"/>
	<path fill="#E6D39F" d="M560.351,210.696l-41.141,39.596c0.966,0.701,1.854,1.508,2.648,2.4l40.672-39.145
		C561.622,212.737,560.897,211.767,560.351,210.696z"/>
</g>
<g>
	<path fill="#E6D39F" d="M601.786,186.508c-3.26,0-6.304-1.295-8.562-3.635l-0.834-0.87c-4.534-4.709-4.388-12.252,0.334-16.801
		l11.124-10.72c4.591-4.402,12.412-4.242,16.815,0.321l0.83,0.856c4.547,4.722,4.395,12.267-0.32,16.815l-11.146,10.719
		C607.804,185.332,604.878,186.508,601.786,186.508z M612.088,154.731c-2.16,0-4.207,0.822-5.768,2.32l-11.116,10.712
		c-3.316,3.19-3.42,8.47-0.244,11.766l0.835,0.87c3.064,3.189,8.561,3.294,11.765,0.215l11.138-10.713
		c3.302-3.182,3.405-8.462,0.229-11.771l-0.83-0.85C616.511,155.638,614.38,154.731,612.088,154.731z"/>
</g>
<g>
	<path fill="#E6D39F" d="M366.161,412.717c-3.261,0-6.306-1.295-8.561-3.649l-0.828-0.857c-4.536-4.709-4.403-12.253,0.311-16.807
		l11.152-10.72c4.569-4.396,12.405-4.242,16.802,0.319l0.834,0.871c4.533,4.709,4.388,12.252-0.335,16.802l-11.124,10.712
		C372.187,411.533,369.253,412.717,366.161,412.717z M376.477,380.934c-2.167,0-4.214,0.829-5.775,2.327l-11.145,10.713
		c-3.294,3.183-3.393,8.469-0.216,11.764l0.831,0.864c3.079,3.204,8.567,3.308,11.771,0.216l11.117-10.706
		c3.315-3.19,3.42-8.47,0.244-11.766l-0.835-0.871C380.892,381.84,378.761,380.934,376.477,380.934z"/>
</g>
<g>
	<path fill="#E6D39F" d="M557.02,365.699c0.09-0.3,0.195-0.595,0.31-0.886c0.002-0.004,0.003-0.007,0.005-0.012
		c0.116-0.292,0.245-0.575,0.386-0.854c0.001-0.003,0.002-0.007,0.003-0.009c0.144-0.28,0.297-0.554,0.463-0.82l0,0
		c0.169-0.268,0.347-0.526,0.539-0.776c0,0,0.001,0,0.001-0.001l-40.951-42.554c-0.729,0.926-1.628,1.722-2.703,2.331l41.945,43.583
		C557.019,365.703,557.019,365.701,557.02,365.699z"/>
	<path fill="#E6D39F" d="M574.692,378.934c-0.636,1.004-1.44,1.896-2.43,2.611l11.539,11.989l2.562-2.473L574.692,378.934z"/>
</g>
<g>
	<path fill="#E6D39F" d="M397.267,194.558l-13.681-14.216l-2.562,2.481l13.521,14.05
		C395.279,195.951,396.185,195.161,397.267,194.558z"/>
	<path fill="#E6D39F" d="M411.358,209.199c-0.555,1.07-1.293,2.037-2.215,2.842l39.822,41.378c0.593-1.039,1.371-1.967,2.323-2.729
		L411.358,209.199z"/>
</g>
<g>
	<path fill="#E6D39F" d="M375.478,186.702c-3.259,0-6.31-1.296-8.574-3.65l-10.726-11.124c-4.536-4.73-4.388-12.273,0.319-16.814
		l0.877-0.829c4.562-4.395,12.385-4.242,16.802,0.32l10.72,11.145c4.534,4.715,4.388,12.252-0.328,16.801l-0.87,0.835
		C381.483,185.518,378.563,186.702,375.478,186.702z M365.602,154.535c-2.16,0-4.208,0.822-5.76,2.32l-0.877,0.829
		c-3.287,3.177-3.392,8.462-0.217,11.772l10.72,11.117c3.101,3.218,8.575,3.314,11.758,0.244l0.871-0.836
		c3.302-3.176,3.406-8.457,0.223-11.764l-10.712-11.138C370.024,155.441,367.886,154.535,365.602,154.535z"/>
</g>
<g>
	<path fill="#E6D39F" d="M600.367,423.109c-3.26,0-6.304-1.295-8.574-3.642l-10.72-11.145c-4.535-4.716-4.388-12.252,0.328-16.803
		l0.87-0.834c4.562-4.389,12.384-4.228,16.793,0.335l10.72,11.123c4.542,4.716,4.396,12.259-0.312,16.814l-0.878,0.83
		C606.385,421.926,603.46,423.109,600.367,423.109z M590.49,390.943c-2.159,0-4.199,0.822-5.747,2.312l-0.871,0.834
		c-3.3,3.178-3.405,8.456-0.221,11.764l10.711,11.139c3.094,3.182,8.568,3.294,11.765,0.221l0.878-0.828
		c3.288-3.184,3.386-8.471,0.209-11.771l-10.711-11.117C594.913,391.848,592.774,390.943,590.49,390.943z"/>
</g>
<g>
	<path fill="#E6D39F" d="M356.921,284.198l-10.907,0.208l0.07,3.566l10.763-0.204C356.7,286.583,356.72,285.374,356.921,284.198z"/>
	<path fill="#E6D39F" d="M438.912,282.636l-61.996,1.182c0.24,1.167,0.31,2.373,0.2,3.564l61.552-1.174
		C438.57,285.013,438.658,283.803,438.912,282.636z"/>
</g>
<g>
	<path fill="#E6D39F" d="M592.139,280.519v-0.803l-58.536,1.116c0.001,0.004,0.003,0.007,0.003,0.01
		c0.125,0.936,0.252,1.872,0.377,2.807c-0.017,0.257-0.037,0.505-0.059,0.745l58.566-1.117c-0.001-0.049,0.004-0.095,0.004-0.144
		C592.27,282.295,592.139,281.421,592.139,280.519z"/>
	<path fill="#E6D39F" d="M614.253,282.861l24.206-0.462l-0.069-3.565l-24.529,0.468C614.05,280.482,614.185,281.67,614.253,282.861z
		"/>
</g>
<g>
	<path fill="#E6D39F" d="M646.605,293.422c-6.429,0-11.764-5.226-11.89-11.646l-0.014-1.226c-0.057-3.155,1.121-6.164,3.33-8.448
		c2.199-2.285,5.16-3.523,8.33-3.586l15.447-0.242h0.01c6.657,0,11.985,5.18,12.104,11.603l0.028,1.165
		c0.126,6.555-5.113,11.976-11.666,12.107L646.605,293.422z M662.041,271.738l-15.608,0.293c-2.222,0.042-4.29,0.947-5.836,2.543
		c-1.541,1.602-2.368,3.704-2.328,5.919l0.093,1.226c0.098,4.479,1.368,8.136,8.409,8.136v1.782l0.075-1.782l15.409-0.286
		c4.59-0.09,8.234-3.895,8.151-8.477l-0.035-1.191C670.288,275.396,666.541,271.738,662.041,271.738z"/>
</g>
<g>
	<path fill="#E6D39F" d="M318.567,297.578c-6.429,0-11.764-5.231-11.882-11.658l-0.028-1.185
		c-0.125-6.562,5.113-11.939,11.674-12.072l15.435-0.223c0.008,0,0.008,0,0.008,0c6.666,0,11.994,5.168,12.112,11.59l0.029,1.17
		c0.104,6.556-5.127,11.968-11.667,12.099L318.567,297.578z M334.004,275.896l-15.602,0.277c-4.598,0.09-8.262,3.9-8.179,8.485
		l0.624,1.184c0.082,4.507,1.088,8.171,8.912,8.171v1.78l-0.436-1.78l15.153-0.293c4.577-0.091,8.099-3.895,8.022-8.477l-0.103-1.19
		C342.311,279.553,338.511,275.896,334.004,275.896z"/>
</g>
<g>
	<path fill="#E6D39F" d="M487.957,415.729c-0.752,0-1.455-0.074-2.125-0.196l0.272,14.221l3.566-0.069l-0.269-14.048
		C488.937,415.692,488.459,415.729,487.957,415.729z"/>
	<path fill="#E6D39F" d="M488.479,392.003c0.162,0,0.314,0.017,0.473,0.022l-1.152-60.311c-0.291,0.02-0.58,0.044-0.885,0.044
		c-0.968,0-1.858-0.116-2.689-0.314l1.165,60.979C486.33,392.158,487.354,392.003,488.479,392.003z"/>
</g>
<g>
	<path fill="#E6D39F" d="M482.742,156.783c0.609,0,1.182,0.056,1.736,0.137l-0.374-19.604l-3.567,0.07l0.374,19.548
		C481.494,156.845,482.098,156.783,482.742,156.783z"/>
	<path fill="#E6D39F" d="M482.742,177.902c-0.498,0-0.973-0.036-1.434-0.091l1.135,59.582c0.768-0.184,1.565-0.291,2.385-0.291
		c0.398,0,0.791,0.028,1.179,0.073l-1.133-59.47C484.203,177.827,483.497,177.902,482.742,177.902z"/>
</g>
<g>
	<path fill="none" d="M492.609,237.202c-26.059-3.268-49.838,15.205-53.113,41.263c-3.267,26.05,15.207,49.83,41.256,53.104
		c26.058,3.275,49.837-15.205,53.11-41.255C537.141,264.255,518.66,240.475,492.609,237.202z M484.014,305.616
		c-11.723-1.47-20.033-12.17-18.563-23.898c1.477-11.723,12.168-20.033,23.899-18.563c11.729,1.477,20.037,12.169,18.562,23.898
		C506.443,298.783,495.744,307.093,484.014,305.616z"/>
	<path fill="#E6D39F" d="M486.744,333.729c-0.006,0-0.006,0-0.006,0c-2.064,0-4.154-0.132-6.209-0.39
		c-26.984-3.392-46.188-28.106-42.802-55.098c3.093-24.628,24.121-43.199,48.905-43.199c2.054,0,4.146,0.133,6.2,0.391
		c26.99,3.392,46.195,28.112,42.803,55.103C532.542,315.157,511.521,333.729,486.744,333.729z M486.633,238.609
		c-22.993,0-42.495,17.231-45.365,40.078c-3.142,25.034,14.676,47.964,39.71,51.112c1.906,0.237,3.852,0.362,5.761,0.362
		c22.985,0,42.489-17.225,45.358-40.073c3.148-25.04-14.67-47.971-39.709-51.119C490.478,238.733,488.541,238.609,486.633,238.609z
		 M486.717,307.566c-0.969,0-1.943-0.056-2.926-0.181c-12.678-1.589-21.696-13.207-20.109-25.891
		c1.575-12.524,12.99-21.746,25.892-20.109c12.684,1.595,21.702,13.213,20.107,25.891
		C508.232,298.846,498.355,307.566,486.717,307.566z M486.66,264.771c-9.848,0-18.205,7.384-19.44,17.17
		c-1.345,10.733,6.29,20.562,17.017,21.907c10.845,1.364,20.575-6.404,21.907-17.018c1.35-10.728-6.284-20.555-17.018-21.907
		C488.297,264.819,487.477,264.771,486.66,264.771z"/>
</g>
<g>
	<path fill="none" d="M502.383,159.363c-70.359-8.833-134.544,41.033-143.384,111.392c-8.832,70.357,41.033,134.551,111.392,143.383
		c70.359,8.833,134.544-41.033,143.383-111.392C622.605,232.389,572.739,168.203,502.383,159.363z M470.696,392.607
		c-58.626-7.363-100.184-60.857-92.82-119.484c7.362-58.629,60.857-100.186,119.483-92.822
		c58.629,7.362,100.186,60.857,92.822,119.485C582.818,358.413,529.324,399.97,470.696,392.607z"/>
	<path fill="#E6D39F" d="M486.549,416.938c0,0,0,0-0.006,0c-5.434-0.007-10.943-0.348-16.377-1.031
		c-71.215-8.936-121.882-74.152-112.938-145.375c8.164-64.974,63.614-113.968,128.994-113.968c5.439,0,10.949,0.347,16.381,1.03
		c71.215,8.944,121.874,74.161,112.938,145.376C607.379,367.937,551.92,416.938,486.549,416.938z M486.223,160.128
		c-63.582,0-117.516,47.658-125.456,110.848c-4.214,33.553,4.89,66.744,25.64,93.448c20.744,26.706,50.653,43.729,84.206,47.944
		c5.28,0.662,10.643,0.993,15.931,1.003c63.585,0,117.521-47.65,125.459-110.849c8.693-69.265-40.579-132.691-109.843-141.391
		C496.872,160.471,491.516,160.128,486.223,160.128z M484.161,395.233c-4.544,0-9.146-0.285-13.688-0.856
		c-59.506-7.474-101.843-61.965-94.367-121.479c6.818-54.288,53.151-95.224,107.788-95.224c4.544,0,9.146,0.285,13.688,0.857
		c59.506,7.474,101.844,61.964,94.367,121.476C585.132,354.298,538.797,395.233,484.161,395.233z M483.895,181.242
		c-52.839,0-97.653,39.59-104.251,92.103c-7.229,57.556,33.721,110.264,91.275,117.493c4.388,0.551,8.848,0.831,13.242,0.831
		c52.839,0,97.654-39.593,104.253-92.104c7.23-57.556-33.722-110.264-91.275-117.495
		C492.748,181.52,488.291,181.242,483.895,181.242z"/>
</g>
<g>
	<path fill="#E6D39F" d="M494.668,127.77c0,6.429-5.227,11.764-11.646,11.89l-1.226,0.014c-3.156,0.056-6.165-1.121-8.45-3.33
		c-2.284-2.2-3.522-5.161-3.585-8.33l-0.243-15.448v-0.009c0-6.658,5.181-11.987,11.603-12.105l1.165-0.027
		c6.555-0.127,11.977,5.113,12.107,11.666L494.668,127.77z M472.984,112.334l0.292,15.609c0.041,2.221,0.947,4.29,2.542,5.836
		c1.602,1.54,3.705,2.368,5.92,2.328l1.226-0.093c4.479-0.098,8.135-1.368,8.135-8.409h1.783l-1.783-0.075l-0.286-15.409
		c-0.09-4.59-3.894-8.234-8.477-8.15l-1.19,0.035C476.641,104.087,472.984,107.834,472.984,112.334z"/>
</g>
<g>
	<path fill="#E6D39F" d="M500.743,456.32c0,6.428-5.225,11.764-11.646,11.889l-1.227,0.015c-3.155,0.056-6.165-1.122-8.449-3.33
		c-2.284-2.199-3.522-5.161-3.586-8.33l-0.242-15.447v-0.01c0-6.658,5.182-11.986,11.604-12.105l1.164-0.027
		c6.555-0.127,11.977,5.113,12.108,11.666L500.743,456.32z M479.06,440.885l0.293,15.608c0.041,2.222,0.947,4.29,2.542,5.837
		c1.602,1.541,3.706,2.368,5.92,2.327l1.226-0.093c4.479-0.098,8.136-1.367,8.136-8.408h1.782l-1.782-0.075l-0.287-15.41
		c-0.09-4.59-3.893-8.233-8.477-8.15l-1.19,0.035C482.717,432.638,479.06,436.385,479.06,440.885z"/>
</g>
<line stroke="#E6D39F" stroke-width="15" stroke-miterlimit="10" x1="825.979" y1="280.514" x2="2312.935" y2="280.514"/>
<line stroke="#E6D39F" stroke-width="15" stroke-miterlimit="10" x1="-1349.613" y1="280.514" x2="137.343" y2="280.514"/>
</svg>
